<?xml version="1.0" encoding="utf-8"?>
<!-- Generator: Adobe Illustrator 24.3.0, SVG Export Plug-In . SVG Version: 6.00 Build 0)  -->
<svg version="1.1" id="Capa_1" xmlns="http://www.w3.org/2000/svg" xmlns:xlink="http://www.w3.org/1999/xlink" x="0px" y="0px"
	 viewBox="0 0 212 77.4" style="enable-background:new 0 0 212 77.4;" xml:space="preserve">
<style type="text/css">
	.st0{fill:#FFFFFF;}
	.st1{fill:#A2D45E;}
</style>
<g>
	<path class="st0" d="M62.9,8.4c-4.8-0.3-8.9,2.4-12.1,5.3c-6.1,5.4-8.4,7.3-8.4,7.3s-2.2-1.9-8.4-7.3c-3.2-2.8-7.3-5.6-12.1-5.3
		C10.4,9.2,9.4,20,9.4,20v3v35c0,6.3,4.6,13.7,14.6,13.7c17.3,0,15.4-16.2,15.4-16.2l-8.2-9.6v-2.5l11.2,10.4l11.2-10.4v2.5
		l-8.2,9.6c0,0-3,16.2,15.4,16.2c10,0,14.6-7.4,14.6-13.7v-35v-3C75.4,20,74.5,9.2,62.9,8.4"/>
	<path class="st1" d="M57.3,39.1c0,0,2.3-3.3,0.8-7.4c-0.7-1.9-3.4-4.7-7.3-4.7c-1.9,0-3.4,0.4-4.6,0.9c-3.1,1.5-3.8,4-3.8,4
		c0,0-0.7-2.5-3.8-4C37.4,27.4,35.9,27,34,27c-3.9,0-6.6,2.8-7.3,4.7c-1.5,4,0.8,7.4,0.8,7.4s-5.9,0.5-5.3,5.9c0.6,6.1,8,7.7,8,7.7
		s-0.5,3.7,3.1,5.1c1.5,0.6,3.1,0.5,4.8-0.6c1-0.7,1.4-1.8,1.4-1.8l-8.2-9.6v-2.5l11.2,10.4h0l0,0l11.2-10.4v2.5l-8.2,9.6
		c0,0,0.4,1.1,1.4,1.8c1.6,1.1,3.2,1.2,4.8,0.6c3.6-1.4,3.1-5.1,3.1-5.1s7.4-1.6,8-7.7C63.1,39.6,57.3,39.1,57.3,39.1"/>
	<g>
		<path class="st0" d="M103,20.7c2.1,0,3.7,0.6,4.9,1.7c1.2,1.1,1.7,2.7,1.7,4.7v9.3h-3.7v-9.5c0-1-0.2-1.7-0.7-2.2
			c-0.5-0.5-1.4-0.8-2.8-0.8c-1.1,0-2.1,0.1-3.2,0.4c0.4,0.5,0.7,1.5,0.7,2.9v9.3h-3.7v-9.6c0-0.9-0.2-1.7-0.7-2.1
			C94.9,24.2,94,24,92.7,24c-0.9,0-1.7,0.1-2.6,0.2v12.2h-3.7V22.5c2.3-1.2,4.6-1.7,6.8-1.7c1.7,0,3.1,0.4,4.2,1.1
			C99.3,21.1,101.2,20.7,103,20.7"/>
		<path class="st0" d="M119.5,33.5c1.8,0,3.6-0.4,5.2-1.2v3c-1.7,0.9-3.6,1.4-5.8,1.4c-0.7,0-1.3-0.1-1.9-0.2
			c-0.6-0.1-1.2-0.3-1.9-0.7c-0.6-0.4-1.2-0.8-1.7-1.3c-0.5-0.5-0.8-1.3-1.1-2.3c-0.3-1-0.4-2.1-0.4-3.3c0-2.5,0.5-4.5,1.6-5.9
			c1.1-1.5,2.8-2.2,5.2-2.2c2.3,0,4,0.7,5.1,2.2c1.2,1.4,1.7,3.2,1.7,5.3c0,0.9,0,1.5-0.1,1.9h-10c0.1,1.3,0.5,2.2,1.2,2.7
			C117.5,33.2,118.4,33.5,119.5,33.5 M120.9,24.8c-0.5-0.7-1.3-1.1-2.2-1.1c-0.9,0-1.6,0.3-2.2,0.9c-0.5,0.6-0.8,1.6-0.9,2.9h6.2
			C121.7,26.5,121.4,25.6,120.9,24.8"/>
		<path class="st0" d="M134.9,20.7c2.1,0,3.8,0.6,5,1.7c1.2,1.1,1.8,2.7,1.8,4.7v9.3H138v-9.6c0-0.4,0-0.8-0.1-1
			c-0.1-0.3-0.2-0.6-0.5-0.9c-0.2-0.3-0.6-0.5-1.1-0.7c-0.5-0.2-1.2-0.2-2-0.2c-0.9,0-1.9,0.1-2.9,0.3v12.1h-3.7v-14
			C130.1,21.3,132.4,20.7,134.9,20.7"/>
		<path class="st0" d="M144,28.5c0-2.5,0.6-4.4,1.8-5.7c1.2-1.3,3-2,5.3-2c0.8,0,1.7,0.1,2.6,0.2v-5.9h3.7v16.3
			c0,1.4-0.5,2.6-1.6,3.7c-1.1,1-2.7,1.5-4.9,1.5c-0.5,0-1,0-1.5-0.1c-0.5-0.1-1.1-0.3-1.8-0.6c-0.7-0.3-1.3-0.8-1.8-1.3
			c-0.5-0.5-0.9-1.3-1.3-2.4C144.2,31.1,144,29.9,144,28.5 M147.7,28.3c0,1.8,0.2,3.1,0.7,3.9c0.5,0.8,1.3,1.2,2.5,1.2
			c1.9,0,2.8-0.6,2.8-1.7v-7.9c-0.7-0.2-1.5-0.2-2.4-0.3c-1.2,0-2,0.3-2.6,1C148,25.4,147.7,26.6,147.7,28.3"/>
		<path class="st0" d="M161.2,22.8c1.3-1.4,3.1-2,5.4-2c2.3,0,4.1,0.7,5.4,2c1.3,1.4,1.9,3.3,1.9,5.9s-0.6,4.5-1.9,5.9
			c-1.3,1.4-3.1,2-5.4,2c-2.3,0-4.1-0.7-5.4-2c-1.3-1.4-1.9-3.3-1.9-5.9S159.9,24.2,161.2,22.8 M163.9,32.6c0.6,0.7,1.5,1,2.7,1
			s2.1-0.3,2.7-1c0.6-0.7,0.9-2,0.9-3.9c0-1.9-0.3-3.2-0.9-3.9c-0.6-0.7-1.5-1-2.7-1s-2.1,0.3-2.7,1c-0.6,0.7-0.9,2-0.9,3.9
			C163,30.6,163.3,31.9,163.9,32.6"/>
		<polygon class="st0" points="186.9,24.4 179.6,33.1 186.8,33.1 186.8,36.4 175.1,36.4 175.1,32.9 182.2,24.3 175.3,24.3 175.3,21 
			186.9,21 		"/>
		<path class="st0" d="M194.9,20.8c2.2,0,3.9,0.6,5,1.7c1.2,1.1,1.7,2.7,1.7,4.9v4.2c0,1.4-0.5,2.6-1.6,3.7c-1.1,1-2.7,1.5-4.9,1.5
			c-2.3,0-3.9-0.5-5-1.5c-1.1-1-1.6-2.3-1.6-3.8c0-0.3,0-0.6,0.1-1c0.1-0.3,0.2-0.7,0.5-1.2c0.3-0.5,0.6-0.9,1.1-1.3
			c0.4-0.4,1.1-0.7,2-1c0.9-0.3,1.9-0.4,3.1-0.4c0.8,0,1.7,0.1,2.7,0.2c0-1.9-1.1-2.9-3.3-2.9c-1.7,0-3.2,0.3-4.5,0.8v-3
			C191.5,21,193.1,20.8,194.9,20.8 M197.9,31v-1.9c-0.9-0.1-1.6-0.2-2.2-0.2c-2.3,0-3.5,0.7-3.5,2c0,1.6,1,2.4,2.9,2.4
			C197,33.3,197.9,32.5,197.9,31"/>
	</g>
	<g>
		<path class="st1" d="M94.3,60.2c1.4,0,2.7-0.3,3.8-0.8v3.1c-1.3,0.5-2.8,0.9-4.4,0.9c-4.7,0-7.2-2.8-7.2-7.9
			c0-5.1,2.6-7.9,7.2-7.9c1.6,0,3.1,0.3,4.4,0.9v3.1c-1.1-0.5-2.4-0.7-3.8-0.7c-2.6,0-4.2,0.8-4.2,4.7
			C90.1,59.4,91.7,60.2,94.3,60.2"/>
		<path class="st1" d="M99.4,42.3h3.8v3.4h-3.8V42.3z M99.5,47.8h3.7v15.3h-3.7V47.8z"/>
		<path class="st1" d="M119.5,47.8v8.4c0,4.5-2.6,7.2-6.9,7.2c-4.3,0-6.9-2.7-6.9-7.2v-8.4h3.7v8.8c0,2.4,0.9,3.5,3.2,3.5
			c2.3,0,3.2-1,3.2-3.5v-8.8H119.5z"/>
		<path class="st1" d="M128.4,47.5c0.9,0,1.7,0.1,2.5,0.2v-5.8h3.7v16.2c0,2.5-1.7,5.1-6.5,5.1c-2.1,0-6.8-0.8-6.8-8
			C121.3,50.3,123.8,47.5,128.4,47.5 M128.2,60.2c1.7,0,2.8-0.4,2.8-1.7v-7.8c-0.7-0.2-1.5-0.2-2.4-0.2c-2.1,0-3.5,1-3.5,4.6
			C125,58.6,125.8,60.2,128.2,60.2"/>
		<path class="st1" d="M148.9,54v4.1c0,2.5-1.7,5.1-6.4,5.1c-4.8,0-6.5-2.7-6.5-5.2c0-1.1,0.5-4.8,6.6-4.8c1,0,1.9,0.1,2.7,0.2
			c0-1.7-0.9-2.9-3.2-2.9c-1.8,0-3.3,0.3-4.5,0.8v-3c1.3-0.5,2.8-0.9,4.7-0.9C146.5,47.5,148.9,49.8,148.9,54 M145.2,55.8
			c-0.6-0.1-1.4-0.2-2.2-0.2c-2.5,0-3.5,0.7-3.5,2c0,1.6,1,2.4,2.9,2.4c2,0,2.8-0.9,2.8-2.3V55.8z"/>
		<path class="st1" d="M157.2,47.5c0.9,0,1.7,0.1,2.5,0.2v-5.8h3.7v16.2c0,2.5-1.7,5.1-6.5,5.1c-2,0-6.8-0.8-6.8-8
			C150.1,50.3,152.6,47.5,157.2,47.5 M156.9,60.2c1.7,0,2.8-0.4,2.8-1.7v-7.8c-0.7-0.2-1.5-0.2-2.4-0.2c-2.1,0-3.5,1-3.5,4.6
			C153.8,58.6,154.6,60.2,156.9,60.2"/>
	</g>
</g>
</svg>
